PathFileType	4	(X/Y/Z)	./resultDataOpenSim/trcMotMarkerGrf/sub09/qtm-02-04.trc
DataRate	CameraRate	NumFrames	NumMarkers	Units	OrigDataRate	OrigDataStartFrame	OrigNumFrames
250.000000	250.000000	5	24	m	250.000000	116	461
Frame#	Time	L.Toe.Tip			R.Toe.Tip			L.Ankle.Lat			R.Ankle.Lat			L.Ankle.Med			R.Ankle.Med			L.Heel			R.Heel			L.Knee.Lat			R.Knee.Lat			L.Knee.Med			R.Knee.Med			L.Thigh.Upper			R.Thigh.Upper			L.ASIS			R.ASIS			V.Sacral			L.Acromium			R.Acromium			C7			L.Elbow			R.Elbow			L.Wrist.Lat			R.Wrist.Lat
		X1	Y1	Z1	X2	Y2	Z2	X3	Y3	Z3	X4	Y4	Z4	X5	Y5	Z5	X6	Y6	Z6	X7	Y7	Z7	X8	Y8	Z8	X9	Y9	Z9	X10	Y10	Z10	X11	Y11	Z11	X12	Y12	Z12	X13	Y13	Z13	X14	Y14	Z14	X15	Y15	Z15	X16	Y16	Z16	X17	Y17	Z17	X18	Y18	Z18	X19	Y19	Z19	X20	Y20	Z20	X21	Y21	Z21	X22	Y22	Z22	X23	Y23	Z23	X24	Y24	Z24

116	0.46	-0.16076417	0.10330608	-0.0099226984	-0.61309633	0.03909543	0.07885353	-0.3107963	0.099623127	-0.04948135	-0.75989689	0.056398659	0.10437761	-0.29380641	0.12358398	0.046049494	-0.74591762	0.092934202	0.01310448	-0.36836833	0.044735635	-0.0014498039	-0.82769414	0.035091341	0.05182909	-0.35186587	0.5178457	-0.083035348	-0.63036943	0.49779249	0.17407018	-0.36163131	0.51185107	0.041136887	-0.63939031	0.48770355	0.044480847	-0.54465745	0.89211282	-0.1386044	-0.59634564	0.89851137	0.22837228	-0.48163811	0.97913989	-0.071543054	-0.49073359	0.98071717	0.16709758	-0.6524322	1.0365987	0.024225744	-0.47742352	1.4230207	-0.12576322	-0.48712659	1.4389074	0.20282239	-0.54424976	1.4849917	0.040488686	-0.65535975	1.1063319	-0.17744661	-0.63039632	1.1005957	0.30376185	-0.56477792	0.8597597	-0.22539695	-0.44172253	0.89694877	0.27856892
117	0.464	-0.14171879	0.10708263	-0.0082296464	-0.61300193	0.038976947	0.078925549	-0.29156927	0.099018943	-0.048201898	-0.75978569	0.056500885	0.10418084	-0.2755494	0.1238566	0.047347886	-0.74561301	0.092918392	0.012933946	-0.34769928	0.042713191	-9.1575624e-05	-0.82762166	0.035316352	0.051587114	-0.34501175	0.51547161	-0.083506579	-0.62503248	0.49600845	0.17144166	-0.35488015	0.50957939	0.040577819	-0.63649979	0.48711869	0.044688134	-0.53749707	0.89009265	-0.13842468	-0.59022094	0.89742156	0.22813311	-0.47440689	0.97734531	-0.071273906	-0.48423672	0.97938137	0.16742538	-0.64728573	1.0357673	0.027674792	-0.47094868	1.4215219	-0.12580289	-0.48058031	1.4373476	0.20287796	-0.53786651	1.4835365	0.040485878	-0.64907581	1.1051854	-0.17765144	-0.62358331	1.0988661	0.30413109	-0.56019155	0.85828704	-0.22619989	-0.43433947	0.89595483	0.27784089
118	0.468	-0.12307668	0.11102214	-0.0064939523	-0.61290658	0.038890663	0.079025989	-0.27258828	0.09874609	-0.046917131	-0.75974394	0.056610395	0.10398434	-0.25753903	0.12437893	0.048510319	-0.74528156	0.09292547	0.012785626	-0.32726246	0.041010791	0.0012756528	-0.8275437	0.035558152	0.051313159	-0.33820163	0.51302547	-0.083984606	-0.62035752	0.49433686	0.16924673	-0.34823718	0.50715019	0.040069149	-0.63356972	0.48649535	0.044887371	-0.53031817	0.88798643	-0.13819728	-0.58411146	0.89632479	0.22788863	-0.46716652	0.97546204	-0.070968131	-0.4777435	0.97799182	0.1677852	-0.64300064	1.0352733	0.032664804	-0.46449211	1.4199711	-0.12586609	-0.47403141	1.4357223	0.20294361	-0.53148166	1.4820154	0.040465574	-0.64284384	1.103943	-0.17785646	-0.616764	1.0970548	0.30449577	-0.55546954	0.85676606	-0.22696813	-0.42692831	0.89491144	0.27714728
119	0.472	-0.10487636	0.11507517	-0.0047962044	-0.61281685	0.038816667	0.079137399	-0.25393337	0.098773915	-0.045666964	-0.7597486	0.056751081	0.103808	-0.23970574	0.12517763	0.049527337	-0.7448905	0.092976522	0.012686895	-0.30706278	0.039590638	0.0026293669	-0.82745894	0.035833571	0.051019055	-0.3314085	0.51054372	-0.084455867	-0.61824046	0.49399586	0.16968969	-0.34166319	0.50455082	0.039669303	-0.63058663	0.48584697	0.045099369	-0.52312878	0.88578936	-0.13789739	-0.57798801	0.89521026	0.22762827	-0.45992649	0.97349368	-0.070628111	-0.4712498	0.97654924	0.16818086	-0.6385022	1.0345909	0.037045707	-0.45804324	1.4183546	-0.12594098	-0.46748725	1.4340309	0.2030232	-0.52507203	1.4803966	0.040429795	-0.63671573	1.1026151	-0.17804365	-0.60993461	1.0951635	0.30485982	-0.55057551	0.85521144	-0.22768608	-0.41949598	0.89381266	0.27649478
120	0.476	-0.087127972	0.1192068	-0.0031831077	-0.61273489	0.038743747	0.079250524	-0.23567157	0.09903441	-0.044492465	-0.75977336	0.056919508	0.10364611	-0.22206703	0.12623836	0.050412654	-0.74443726	0.093074788	0.012619134	-0.2871416	0.038433341	0.0039203527	-0.82736403	0.036154561	0.050705931	-0.32462151	0.50805138	-0.084895537	-0.6184217	0.49474746	0.17276346	-0.33504773	0.50181473	0.039440762	-0.62746636	0.48518077	0.045344796	-0.51593176	0.88350063	-0.13752352	-0.57190886	0.8940791	0.22741076	-0.4526862	0.97144362	-0.070259357	-0.46474142	0.97506039	0.16860534	-0.63265214	1.033158	0.039043244	-0.45157383	1.4166547	-0.12600314	-0.46095591	1.4322736	0.20311128	-0.51862808	1.4786701	0.040382135	-0.63061107	1.1012057	-0.1782278	-0.6030899	1.0931965	0.3052205	-0.54549908	0.85362098	-0.22834365	-0.41207283	0.89264449	0.27588622
